<svg width="104.362548828125px" height="183.22109375px" xmlns="http://www.w3.org/2000/svg" viewBox="197.8187255859375 -16.610546874999997 104.362548828125 183.22109375" style="background: rgb(40, 41, 47);" preserveAspectRatio="xMidYMid"><defs><linearGradient id="editing-gradient-gradient" x1="0" x2="1" y1="0.5" y2="0.5" gradientUnits="objectBoundingBox"><stop offset="0" stop-color="#0a0a0a"></stop><stop offset="1" stop-color="#ffffff"></stop></linearGradient></defs><g><g transform="translate(218.9950008392334, 110.7421875)"><path d="M54.00-42.38L54.00-9.62L54.00-9.62Q54.00-7.62 53.25-5.86L53.25-5.86L53.25-5.86Q52.49-4.10 51.20-2.81L51.20-2.81L51.20-2.81Q49.90-1.51 48.14-0.76L48.14-0.76L48.14-0.76Q46.39 0 44.38 0L44.38 0L17.58 0L17.58 21.00L8.01 21.00L8.01-52.00L17.58-52.00L17.58-43.21L17.58-43.21Q17.72-45.07 18.55-46.66L18.55-46.66L18.55-46.66Q19.38-48.24 20.65-49.44L20.65-49.44L20.65-49.44Q21.92-50.63 23.61-51.32L23.61-51.32L23.61-51.32Q25.29-52.00 27.20-52.00L27.20-52.00L44.38-52.00L44.38-52.00Q46.39-52.00 48.14-51.25L48.14-51.25L48.14-51.25Q49.90-50.49 51.20-49.19L51.20-49.19L51.20-49.19Q52.49-47.90 53.25-46.14L53.25-46.14L53.25-46.14Q54.00-44.38 54.00-42.38L54.00-42.38ZM17.58-9.62L44.38-9.62L44.38-42.38L17.58-42.38L17.58-9.62Z" fill="url(#editing-gradient-gradient)"></path></g></g><style>text {
  font-size: 64px;
  font-family: Arial Black;
  dominant-baseline: central;
  text-anchor: middle;
}</style></svg>