<svg width="660.05px" height="142.42109375px" xmlns="http://www.w3.org/2000/svg" viewBox="-80.02499999999998 3.7894531249999943 660.05 142.42109375" style="background: rgba(0, 0, 0, 0);" preserveAspectRatio="xMidYMid"><defs><linearGradient id="editing-gradient-gradient" x1="0" x2="1" y1="0.5" y2="0.5" gradientUnits="objectBoundingBox"><stop offset="0" stop-color="#f0f"></stop><stop offset="1" stop-color="#0ff"></stop></linearGradient></defs><g><g transform="translate(14.325002670288086, 102.18968772888184)"><path d="M14.25 0L6.74 0L6.74-52.51L35.49-52.51L35.49-52.51Q48.23-52.51 48.23-39.73L48.23-39.73L48.23-32.26L48.23-32.26Q48.23-19.48 35.49-19.48L35.49-19.48L14.25-19.48L14.25 0ZM14.25-45.01L14.25-26.99L35.08-26.99L35.08-26.99Q38.09-26.99 39.40-28.31L39.40-28.31L39.40-28.31Q40.72-29.63 40.72-32.63L40.72-32.63L40.72-39.37L40.72-39.37Q40.72-42.37 39.40-43.69L39.40-43.69L39.40-43.69Q38.09-45.01 35.08-45.01L35.08-45.01L14.25-45.01ZM90.97-31.79L90.97-15.82L65.15-15.82L65.15-7.21L90.97-7.21L90.97 0L65.15 0L65.15 0Q63.68 0 62.37-0.57L62.37-0.57L62.37-0.57Q61.05-1.14 60.08-2.11L60.08-2.11L60.08-2.11Q59.11-3.08 58.54-4.39L58.54-4.39L58.54-4.39Q57.97-5.71 57.97-7.21L57.97-7.21L57.97-31.79L57.97-31.79Q57.97-33.29 58.54-34.61L58.54-34.61L58.54-34.61Q59.11-35.93 60.08-36.90L60.08-36.90L60.08-36.90Q61.05-37.87 62.37-38.43L62.37-38.43L62.37-38.43Q63.68-39.00 65.15-39.00L65.15-39.00L83.75-39.00L83.75-39.00Q85.25-39.00 86.57-38.43L86.57-38.43L86.57-38.43Q87.89-37.87 88.86-36.90L88.86-36.90L88.86-36.90Q89.83-35.93 90.40-34.61L90.40-34.61L90.40-34.61Q90.97-33.29 90.97-31.79L90.97-31.79ZM83.75-31.79L65.15-31.79L65.15-23.03L83.75-23.03L83.75-31.79ZM137.48-31.79L137.48 0L130.26 0L130.26-31.79L110.16-31.79L110.16 0L102.98 0L102.98-39.00L110.16-39.00L110.16-32.12L110.16-32.12Q110.23-33.54 110.82-34.81L110.82-34.81L110.82-34.81Q111.40-36.07 112.37-37.01L112.37-37.01L112.37-37.01Q113.34-37.94 114.62-38.47L114.62-38.47L114.62-38.47Q115.91-39.00 117.37-39.00L117.37-39.00L130.26-39.00L130.26-39.00Q131.76-39.00 133.08-38.43L133.08-38.43L133.08-38.43Q134.40-37.87 135.37-36.90L135.37-36.90L135.37-36.90Q136.34-35.93 136.91-34.61L136.91-34.61L136.91-34.61Q137.48-33.29 137.48-31.79L137.48-31.79ZM175.27-31.79L156.67-31.79L156.67-7.21L175.27-7.21L175.27-13.81L182.48-13.81L182.48-7.21L182.48-7.21Q182.48-5.71 181.92-4.39L181.92-4.39L181.92-4.39Q181.35-3.08 180.38-2.11L180.38-2.11L180.38-2.11Q179.41-1.14 178.09-0.57L178.09-0.57L178.09-0.57Q176.77 0 175.27 0L175.27 0L156.67 0L156.67 0Q155.20 0 153.88-0.57L153.88-0.57L153.88-0.57Q152.56-1.14 151.59-2.11L151.59-2.11L151.59-2.11Q150.62-3.08 150.05-4.39L150.05-4.39L150.05-4.39Q149.49-5.71 149.49-7.21L149.49-7.21L149.49-31.79L149.49-31.79Q149.49-33.29 150.05-34.61L150.05-34.61L150.05-34.61Q150.62-35.93 151.59-36.90L151.59-36.90L151.59-36.90Q152.56-37.87 153.88-38.43L153.88-38.43L153.88-38.43Q155.20-39.00 156.67-39.00L156.67-39.00L175.27-39.00L175.27-39.00Q176.77-39.00 178.09-38.43L178.09-38.43L178.09-38.43Q179.41-37.87 180.38-36.90L180.38-36.90L180.38-36.90Q181.35-35.93 181.92-34.61L181.92-34.61L181.92-34.61Q182.48-33.29 182.48-31.79L182.48-31.79L182.48-25.20L175.27-25.20L175.27-31.79ZM194.86-39.00L202.08-39.00L202.08 0L194.86 0L194.86-39.00ZM194.49-46.51L194.49-54.02L202.44-54.02L202.44-46.51L194.49-46.51ZM214.45-54.02L221.63-54.02L221.63 0L214.45 0L214.45-54.02ZM256.86 0L256.86-52.51L295.13-52.51L295.13-45.01L264.37-45.01L264.37-29.99L290.63-29.99L290.63-22.49L264.37-22.49L264.37 0L256.86 0ZM326.92-31.79L312.05-31.79L312.05 0L304.87 0L304.87-39.00L312.05-39.00L312.05-32.12L312.05-32.12Q312.12-33.54 312.71-34.81L312.71-34.81L312.71-34.81Q313.29-36.07 314.26-37.01L314.26-37.01L314.26-37.01Q315.23-37.94 316.52-38.47L316.52-38.47L316.52-38.47Q317.80-39.00 319.26-39.00L319.26-39.00L326.92-39.00L326.92-39.00Q328.42-39.00 329.72-38.43L329.72-38.43L329.72-38.43Q331.02-37.87 332.01-36.90L332.01-36.90L332.01-36.90Q333.00-35.93 333.56-34.61L333.56-34.61L333.56-34.61Q334.13-33.29 334.13-31.79L334.13-31.79L334.13-25.20L326.92-25.20L326.92-31.79ZM376.10-31.79L376.10-15.82L350.28-15.82L350.28-7.21L376.10-7.21L376.10 0L350.28 0L350.28 0Q348.82 0 347.50-0.57L347.50-0.57L347.50-0.57Q346.18-1.14 345.21-2.11L345.21-2.11L345.21-2.11Q344.24-3.08 343.67-4.39L343.67-4.39L343.67-4.39Q343.10-5.71 343.10-7.21L343.10-7.21L343.10-31.79L343.10-31.79Q343.10-33.29 343.67-34.61L343.67-34.61L343.67-34.61Q344.24-35.93 345.21-36.90L345.21-36.90L345.21-36.90Q346.18-37.87 347.50-38.43L347.50-38.43L347.50-38.43Q348.82-39.00 350.28-39.00L350.28-39.00L368.88-39.00L368.88-39.00Q370.39-39.00 371.70-38.43L371.70-38.43L371.70-38.43Q373.02-37.87 373.99-36.90L373.99-36.90L373.99-36.90Q374.96-35.93 375.53-34.61L375.53-34.61L375.53-34.61Q376.10-33.29 376.10-31.79L376.10-31.79ZM368.88-31.79L350.28-31.79L350.28-23.03L368.88-23.03L368.88-31.79ZM387.34-7.21L411.66-7.21L411.66-16.26L394.56-16.26L394.56-16.26Q393.05-16.26 391.74-16.83L391.74-16.83L391.74-16.83Q390.42-17.40 389.45-18.37L389.45-18.37L389.45-18.37Q388.48-19.34 387.91-20.65L387.91-20.65L387.91-20.65Q387.34-21.97 387.34-23.47L387.34-23.47L387.34-31.79L387.34-31.79Q387.34-33.29 387.91-34.61L387.91-34.61L387.91-34.61Q388.48-35.93 389.45-36.90L389.45-36.90L389.45-36.90Q390.42-37.87 391.74-38.43L391.74-38.43L391.74-38.43Q393.05-39.00 394.56-39.00L394.56-39.00L417.37-39.00L417.37-31.79L394.56-31.79L394.56-23.47L411.66-23.47L411.66-23.47Q413.16-23.47 414.46-22.91L414.46-22.91L414.46-22.91Q415.76-22.34 416.75-21.37L416.75-21.37L416.75-21.37Q417.74-20.40 418.30-19.08L418.30-19.08L418.30-19.08Q418.87-17.76 418.87-16.26L418.87-16.26L418.87-7.21L418.87-7.21Q418.87-5.71 418.30-4.39L418.30-4.39L418.30-4.39Q417.74-3.08 416.75-2.11L416.75-2.11L416.75-2.11Q415.76-1.14 414.46-0.57L414.46-0.57L414.46-0.57Q413.16 0 411.66 0L411.66 0L387.34 0L387.34-7.21ZM464.61-31.79L464.61 0L457.40 0L457.40-31.79L437.29-31.79L437.29 0L430.11 0L430.11-54.02L437.29-54.02L437.29-32.12L437.29-32.12Q437.37-33.54 437.95-34.81L437.95-34.81L437.95-34.81Q438.54-36.07 439.51-37.01L439.51-37.01L439.51-37.01Q440.48-37.94 441.76-38.47L441.76-38.47L441.76-38.47Q443.04-39.00 444.51-39.00L444.51-39.00L457.40-39.00L457.40-39.00Q458.90-39.00 460.22-38.43L460.22-38.43L460.22-38.43Q461.54-37.87 462.51-36.90L462.51-36.90L462.51-36.90Q463.48-35.93 464.04-34.61L464.04-34.61L464.04-34.61Q464.61-33.29 464.61-31.79L464.61-31.79Z" fill="url(#editing-gradient-gradient)"></path></g></g><style>text {
  font-size: 64px;
  font-family: Arial Black;
  dominant-baseline: central;
  text-anchor: middle;
}</style></svg>